<svg width="37" height="39" viewBox="0 0 37 39" fill="none" xmlns="http://www.w3.org/2000/svg">
<g clip-path="url(#clip0_1_415)">
<path d="M6.54495 9.433C6.6973 9.63684 15.2901 20.9266 15.2901 20.9266V30.3504C15.2901 31.2129 15.9756 31.9185 16.8288 31.9185H19.8911C20.7291 31.9185 21.4299 31.2129 21.4299 30.3504V20.9109C21.4299 20.9109 29.7941 9.90341 30.1902 9.40164C30.5864 8.89987 30.5407 8.3981 30.5407 8.3981C30.5407 7.53569 29.8551 6.83008 29.0019 6.83008H7.70284C6.77348 6.83008 6.16406 7.58273 6.16406 8.3981C6.16406 8.71171 6.25547 9.08803 6.54495 9.433Z" fill="#FDFFFF"/>
</g>
<defs>
<clipPath id="clip0_1_415">
<rect width="36.5649" height="37.6326" fill="white" transform="translate(0.0683594 0.556641)"/>
</clipPath>
</defs>
</svg>
