<svg width="114" height="114" viewBox="0 0 114 114" fill="none" xmlns="http://www.w3.org/2000/svg">
<g filter="url(#filter0_b_1_401)">
<circle cx="57.3327" cy="57.3327" r="56.6667" fill="white" fill-opacity="0.32"/>
</g>
<path d="M90.6667 57.3314C90.6667 66.1719 87.1548 74.6504 80.9036 80.9016C74.6523 87.1528 66.1739 90.6647 57.3333 90.6647C48.4928 90.6647 40.0143 87.1528 33.7631 80.9016C27.5119 74.6504 24 66.1719 24 57.3314C24 48.4908 27.5119 40.0124 33.7631 33.7612C40.0143 27.5099 48.4928 23.998 57.3333 23.998C66.1739 23.998 74.6523 27.5099 80.9036 33.7612C87.1548 40.0124 90.6667 48.4908 90.6667 57.3314ZM54.4656 45.2189C54.1541 44.9971 53.7875 44.8653 53.4061 44.838C53.0246 44.8107 52.6431 44.8889 52.3031 45.064C51.9632 45.2391 51.678 45.5045 51.4788 45.8309C51.2796 46.1573 51.1741 46.5323 51.1739 46.9147V67.748C51.1741 68.1305 51.2796 68.5054 51.4788 68.8319C51.678 69.1583 51.9632 69.4236 52.3031 69.5988C52.6431 69.7739 53.0246 69.8521 53.4061 69.8248C53.7875 69.7974 54.1541 69.6657 54.4656 69.4439L69.0489 59.0272C69.319 58.8345 69.5391 58.5801 69.691 58.2851C69.8429 57.9901 69.9221 57.6632 69.9221 57.3314C69.9221 56.9996 69.8429 56.6726 69.691 56.3777C69.5391 56.0827 69.319 55.8283 69.0489 55.6355L54.4656 45.2189Z" fill="white"/>
<defs>
<filter id="filter0_b_1_401" x="-8.66732" y="-8.66732" width="132.001" height="132.001" filterUnits="userSpaceOnUse" color-interpolation-filters="sRGB">
<feFlood flood-opacity="0" result="BackgroundImageFix"/>
<feGaussianBlur in="BackgroundImageFix" stdDeviation="4.66667"/>
<feComposite in2="SourceAlpha" operator="in" result="effect1_backgroundBlur_1_401"/>
<feBlend mode="normal" in="SourceGraphic" in2="effect1_backgroundBlur_1_401" result="shape"/>
</filter>
</defs>
</svg>
