<svg width="24" height="19" viewBox="0 0 24 19" fill="none" xmlns="http://www.w3.org/2000/svg">
<g clip-path="url(#clip0_1_7233)">
<path d="M22.3205 2.47341C22.3347 2.38329 22.3347 2.2906 22.3205 2.19919C22.2832 2.10779 22.2381 2.02024 22.1841 1.93785C22.1841 1.93785 22.1841 1.82842 22.0875 1.77306C22.0193 1.69839 21.9408 1.63402 21.8545 1.58124C21.7927 1.53489 21.7283 1.4937 21.6614 1.45765C21.5803 1.44606 21.4966 1.44606 21.4142 1.45765C21.2752 1.36366 21.1155 1.30702 20.9481 1.29286H1.72199C1.63187 1.27998 1.53917 1.27998 1.44777 1.29286C1.36537 1.28127 1.28298 1.28127 1.20059 1.29286C1.13364 1.32891 1.06927 1.3701 1.00876 1.41645C0.921221 1.46923 0.842686 1.5336 0.774454 1.60827C0.774454 1.60827 0.774454 1.7177 0.677898 1.77306H0.679186C0.619964 1.85288 0.573619 1.94042 0.541432 2.03441C0.527271 2.12581 0.527271 2.2185 0.541432 2.30862C0.452602 2.4129 0.386944 2.53521 0.349609 2.66651V16.398C0.349609 16.7623 0.493799 17.1125 0.751297 17.37C1.00879 17.6274 1.35765 17.7717 1.722 17.7717H20.9482C21.3125 17.7717 21.6614 17.6275 21.9189 17.37C22.1763 17.1125 22.3206 16.7623 22.3206 16.398V2.66651C22.327 2.60214 22.327 2.53777 22.3206 2.4734L22.3205 2.47341ZM17.2404 4.0389L11.3351 9.09328L5.42975 4.0389H17.2404ZM3.09569 15.0257V5.64558L10.4429 11.9487C10.9566 12.389 11.7136 12.389 12.2273 11.9487L19.5745 5.64558V15.0257H3.09569Z" fill="black"/>
</g>
<defs>
<clipPath id="clip0_1_7233">
<rect width="23.0703" height="17.5774" fill="white" transform="translate(0.349609 0.742188)"/>
</clipPath>
</defs>
</svg>
