<svg width="68" height="22" viewBox="0 0 68 22" fill="none" xmlns="http://www.w3.org/2000/svg">
<g clip-path="url(#clip0_1_126)">
<path d="M9.08968 7.94611V10.2249H14.5283C14.3839 11.4855 13.9508 12.4552 13.277 13.0855C12.5069 13.8613 11.2555 14.734 9.08968 14.734C5.76873 14.734 3.16973 12.0188 3.16973 8.67338C3.16973 5.32792 5.7206 2.61277 9.08968 2.61277C10.8705 2.61277 12.2181 3.34005 13.1807 4.26126L14.769 2.66126C13.4213 1.35217 11.5924 0.333984 9.08968 0.333984C4.51736 0.333984 0.666992 4.06732 0.666992 8.67338C0.666992 13.2794 4.51736 17.0128 9.08968 17.0128C11.5443 17.0128 13.4213 16.1885 14.8652 14.6855C16.3572 13.1825 16.8385 11.0491 16.8385 9.35217C16.8385 8.81883 16.7904 8.33399 16.7423 7.94611H9.08968V7.94611Z" fill="white" fill-opacity="0.5"/>
<path d="M23.577 6.05469C20.6411 6.05469 18.1865 8.33347 18.1865 11.4365C18.1865 14.5395 20.593 16.8183 23.577 16.8183C26.5611 16.8183 28.9676 14.588 28.9676 11.485C28.9676 8.33348 26.5611 6.05469 23.577 6.05469ZM23.577 14.7335C21.9406 14.7335 20.5449 13.3759 20.5449 11.485C20.5449 9.5456 21.9406 8.23651 23.577 8.23651C25.2134 8.23651 26.6092 9.5456 26.6092 11.485C26.6092 13.3759 25.2134 14.7335 23.577 14.7335Z" fill="white" fill-opacity="0.5"/>
<path d="M49.9043 7.26681H49.808C49.2786 6.63651 48.2679 6.05469 46.9684 6.05469C44.2731 6.05469 41.9629 8.38196 41.9629 11.4365C41.9629 14.4426 44.2731 16.8183 46.9684 16.8183C48.2679 16.8183 49.2786 16.2365 49.808 15.6062H49.9043V16.382C49.9043 18.4183 48.7973 19.5335 47.0646 19.5335C45.6207 19.5335 44.7544 18.5153 44.3694 17.5941L42.3479 18.4668C42.9255 19.8729 44.5138 21.6668 47.1128 21.6668C49.8561 21.6668 52.2145 20.0183 52.2145 16.0426V6.3456H50.0005V7.26681H49.9043ZM47.209 14.7335C45.5726 14.7335 44.3694 13.3274 44.3694 11.485C44.3694 9.59408 45.6207 8.23651 47.209 8.23651C48.7973 8.23651 50.0487 9.64257 50.0487 11.5335C50.0968 13.3759 48.8454 14.7335 47.209 14.7335Z" fill="white" fill-opacity="0.5"/>
<path d="M35.5614 6.05469C32.6255 6.05469 30.1709 8.33347 30.1709 11.4365C30.1709 14.5395 32.5774 16.8183 35.5614 16.8183C38.5455 16.8183 40.9519 14.588 40.9519 11.485C40.9519 8.33348 38.5455 6.05469 35.5614 6.05469ZM35.5614 14.7335C33.925 14.7335 32.5292 13.3759 32.5292 11.485C32.5292 9.5456 33.925 8.23651 35.5614 8.23651C37.1978 8.23651 38.5936 9.5456 38.5936 11.485C38.5936 13.3759 37.1978 14.7335 35.5614 14.7335Z" fill="white" fill-opacity="0.5"/>
<path d="M53.9951 0.576172H56.3053V16.8671H53.9951V0.576172Z" fill="white" fill-opacity="0.5"/>
<path d="M63.4271 14.7335C62.2238 14.7335 61.4056 14.2001 60.8281 13.085L67.9994 10.1274L67.7587 9.49711C67.3256 8.28499 65.9298 6.05469 63.1864 6.05469C60.443 6.05469 58.1328 8.23651 58.1328 11.4365C58.1328 14.4426 60.3949 16.8183 63.4271 16.8183C65.8817 16.8183 67.2774 15.3153 67.9031 14.4426L66.0742 13.2304C65.4485 14.1517 64.6303 14.7335 63.4271 14.7335ZM63.2827 8.09105C64.2453 8.09105 65.0635 8.5759 65.3041 9.25469L60.4912 11.2911C60.443 9.06075 62.0794 8.09105 63.2827 8.09105Z" fill="white" fill-opacity="0.5"/>
</g>
<defs>
<clipPath id="clip0_1_126">
<rect width="67.3333" height="21.3333" fill="white" transform="translate(0.666992 0.333984)"/>
</clipPath>
</defs>
</svg>
