<svg width="268" height="47" viewBox="0 0 268 47" fill="none" xmlns="http://www.w3.org/2000/svg">
<g clip-path="url(#clip0_1_6635)">
<path fill-rule="evenodd" clip-rule="evenodd" d="M252.073 42.7305V23.2717H264.646L266.532 15.686H252.073V10.8437C252.073 8.64814 253.242 7.1519 259.312 7.1519L267.041 7.15024V0.365352C265.704 0.275154 261.116 0.0683594 255.776 0.0683594C244.625 0.0683594 236.99 3.60284 236.99 10.0924V15.686H224.379V23.2717H236.99V42.7305H252.073Z" fill="#2D28F9"/>
<path fill-rule="evenodd" clip-rule="evenodd" d="M154.889 18.2801H134.389C134.389 20.412 134.389 24.6758 134.376 26.8077H146.255C145.8 28.9397 144.186 31.9243 141.906 33.4273C141.903 33.4252 141.901 33.4401 141.897 33.438C138.865 35.4398 134.864 35.8939 131.893 35.297C127.237 34.3717 123.551 30.9948 122.055 26.7054C122.064 26.699 122.07 26.6393 122.077 26.6351C121.14 23.9744 121.14 20.412 122.077 18.2801C123.283 14.3617 127.078 10.7865 131.741 9.80793C135.491 9.01273 139.723 9.87402 142.836 12.7862C143.249 12.3811 148.564 7.19208 148.962 6.76996C138.329 -2.85985 121.304 0.527743 114.933 12.9632C114.933 12.9632 114.933 12.9632 114.92 12.9866C111.768 19.0945 111.899 26.2918 114.942 32.1077C114.933 32.1141 114.926 32.1183 114.92 32.1247C117.677 37.4758 122.695 41.5797 128.742 43.1424C135.165 44.8266 143.339 43.6754 148.814 38.723C148.817 38.7251 148.819 38.7272 148.821 38.7294C153.46 34.5508 156.348 27.4324 154.889 18.2801Z" fill="#0D0D0D"/>
<g filter="url(#filter0_d_1_6635)">
<path d="M211.342 5.46812C209.773 6.30116 208.066 6.90071 206.307 7.13421C208.133 5.79904 209.5 3.68969 210.152 1.20191C208.439 2.45646 206.562 3.33617 204.605 3.80202C203.787 2.72554 202.797 1.86797 201.698 1.28274C200.599 0.697506 199.414 0.397161 198.217 0.400417C193.372 0.400417 189.475 5.23461 189.475 11.1669C189.475 12 189.557 12.833 189.69 13.6345C182.436 13.1675 175.965 8.90128 171.664 2.36944C170.88 4.01733 170.469 5.89364 170.474 7.80317C170.474 11.5393 172.017 14.8336 174.371 16.771C172.984 16.7038 171.629 16.2346 170.418 15.4016V15.5341C170.418 20.7659 173.422 25.1015 177.426 26.0986C176.675 26.339 175.901 26.462 175.124 26.4647C174.555 26.4647 174.017 26.3953 173.473 26.3006C174.581 30.5668 177.806 33.6655 181.646 33.7665C178.642 36.6632 174.878 38.3672 170.792 38.3672C170.059 38.3672 169.382 38.3356 168.68 38.2346C172.556 41.2954 177.155 43.0625 182.107 43.0625C198.186 43.0625 206.984 26.6666 206.984 12.4354C206.984 11.9684 206.984 11.5014 206.958 11.0344C208.66 9.50082 210.152 7.60122 211.342 5.46812Z" fill="#2AE7E7"/>
</g>
<circle cx="78.2393" cy="21.7314" r="21.3311" fill="white"/>
<path fill-rule="evenodd" clip-rule="evenodd" d="M69.445 1.38189C71.7197 1.27718 72.445 1.25391 78.2393 1.25391C84.0336 1.25391 84.7588 1.27912 87.0315 1.38189C89.3043 1.48467 90.8556 1.8473 92.213 2.37282C93.6345 2.90997 94.924 3.74964 95.9906 4.83558C97.0765 5.9002 97.9143 7.18782 98.4495 8.61118C98.9769 9.96861 99.3376 11.52 99.4423 13.7888C99.5471 16.0674 99.5703 16.7926 99.5703 22.585C99.5703 28.3793 99.5451 29.1045 99.4423 31.3792C99.3396 33.648 98.9769 35.1994 98.4495 36.5568C97.9142 37.9804 97.0751 39.2701 95.9906 40.3363C94.924 41.4222 93.6345 42.26 92.213 42.7952C90.8556 43.3226 89.3043 43.6833 87.0354 43.788C84.7588 43.8928 84.0336 43.916 78.2393 43.916C72.445 43.916 71.7197 43.8908 69.445 43.788C67.1762 43.6853 65.6248 43.3226 64.2674 42.7952C62.8439 42.2599 61.5541 41.4208 60.4879 40.3363C59.4027 39.271 58.5629 37.9819 58.0271 36.5587C57.5016 35.2013 57.1409 33.65 57.0362 31.3811C56.9315 29.1026 56.9082 28.3773 56.9082 22.585C56.9082 16.7907 56.9334 16.0654 57.0362 13.7927C57.139 11.52 57.5016 9.96861 58.0271 8.61118C58.5637 7.18798 59.4042 5.89887 60.4899 4.83365C61.5546 3.74867 62.843 2.90889 64.2655 2.37282C65.6229 1.8473 67.1743 1.48661 69.4431 1.38189H69.445ZM86.8589 5.22148C84.6095 5.11871 83.9347 5.09738 78.2393 5.09738C72.5439 5.09738 71.869 5.11871 69.6196 5.22148C67.5388 5.3165 66.4102 5.66362 65.6578 5.95644C64.663 6.34427 63.9513 6.80386 63.2047 7.55045C62.497 8.23896 61.9524 9.07713 61.6107 10.0035C61.3179 10.7559 60.9708 11.8845 60.8758 13.9653C60.773 16.2147 60.7517 16.8896 60.7517 22.585C60.7517 28.2804 60.773 28.9552 60.8758 31.2047C60.9708 33.2854 61.3179 34.414 61.6107 35.1664C61.952 36.0914 62.4969 36.9311 63.2047 37.6195C63.8932 38.3273 64.7328 38.8722 65.6578 39.2135C66.4102 39.5063 67.5388 39.8534 69.6196 39.9484C71.869 40.0512 72.5419 40.0726 78.2393 40.0726C83.9366 40.0726 84.6095 40.0512 86.8589 39.9484C88.9397 39.8534 90.0683 39.5063 90.8207 39.2135C91.8155 38.8257 92.5272 38.3661 93.2738 37.6195C93.9816 36.9311 94.5265 36.0914 94.8678 35.1664C95.1606 34.414 95.5077 33.2854 95.6027 31.2047C95.7055 28.9552 95.7269 28.2804 95.7269 22.585C95.7269 16.8896 95.7055 16.2147 95.6027 13.9653C95.5077 11.8845 95.1606 10.7559 94.8678 10.0035C94.48 9.00872 94.0204 8.29703 93.2738 7.55045C92.5852 6.84278 91.7471 6.29814 90.8207 5.95644C90.0683 5.66362 88.9397 5.3165 86.8589 5.22148V5.22148ZM75.5147 29.1607C77.0363 29.7941 78.7306 29.8796 80.3082 29.4026C81.8859 28.9256 83.2489 27.9156 84.1647 26.5453C85.0804 25.1749 85.4919 23.5291 85.329 21.889C85.1661 20.2489 84.4389 18.7162 83.2715 17.5528C82.5273 16.8091 81.6274 16.2396 80.6367 15.8854C79.6461 15.5311 78.5891 15.401 77.5421 15.5042C76.4951 15.6075 75.484 15.9417 74.5816 16.4826C73.6792 17.0235 72.9079 17.7578 72.3234 18.6326C71.7388 19.5074 71.3555 20.5009 71.201 21.5416C71.0465 22.5823 71.1247 23.6443 71.4299 24.6512C71.7351 25.6581 72.2597 26.5848 72.9661 27.3645C73.6724 28.1443 74.5428 28.7578 75.5147 29.1607ZM70.4864 14.8321C71.5045 13.814 72.7132 13.0064 74.0434 12.4554C75.3737 11.9043 76.7994 11.6208 78.2393 11.6208C79.6791 11.6208 81.1048 11.9043 82.4351 12.4554C83.7653 13.0064 84.974 13.814 85.9921 14.8321C87.0103 15.8502 87.8179 17.0589 88.3689 18.3891C88.9199 19.7194 89.2035 21.1451 89.2035 22.585C89.2035 24.0248 88.9199 25.4505 88.3689 26.7808C87.8179 28.111 87.0103 29.3197 85.9921 30.3378C83.9359 32.394 81.1472 33.5492 78.2393 33.5492C75.3314 33.5492 72.5426 32.394 70.4864 30.3378C68.4302 28.2816 67.275 25.4929 67.275 22.585C67.275 19.6771 68.4302 16.8883 70.4864 14.8321V14.8321ZM91.6352 13.2536C91.8875 13.0156 92.0894 12.7294 92.2291 12.4119C92.3689 12.0945 92.4434 11.7522 92.4485 11.4054C92.4536 11.0586 92.389 10.7143 92.2586 10.3929C92.1282 10.0715 91.9346 9.77956 91.6894 9.53431C91.4441 9.28906 91.1522 9.09551 90.8308 8.96512C90.5094 8.83473 90.1651 8.77015 89.8183 8.7752C89.4715 8.78026 89.1292 8.85485 88.8118 8.99455C88.4943 9.13426 88.2081 9.33624 87.9701 9.58853C87.5072 10.0792 87.2538 10.7309 87.2637 11.4054C87.2735 12.0799 87.5458 12.724 88.0228 13.2009C88.4997 13.6779 89.1438 13.9502 89.8183 13.96C90.4927 13.9699 91.1445 13.7165 91.6352 13.2536V13.2536Z" fill="#E323E7"/>
<circle cx="22.208" cy="21.7314" r="21.3311" fill="#1B1B1B"/>
<path d="M35.2622 11.057C32.8463 10.0576 30.297 9.34441 27.6779 8.93505C27.6542 8.93145 27.6298 8.93456 27.6081 8.94396C27.5864 8.95335 27.5685 8.96857 27.5568 8.98752C27.2285 9.51223 26.8652 10.1985 26.6114 10.7358C23.7882 10.3497 20.9165 10.3497 18.0933 10.7358C17.8102 10.1373 17.4899 9.5536 17.1339 8.98752C17.122 8.96878 17.104 8.95374 17.0824 8.94437C17.0608 8.935 17.0365 8.93176 17.0128 8.93505C14.3931 9.34222 11.8433 10.0558 9.42854 11.057C9.40787 11.0641 9.39059 11.0774 9.37963 11.0947C4.55008 17.599 3.2251 23.9437 3.87479 30.2087C3.87711 30.2381 3.89807 30.2675 3.92369 30.2864C6.73601 32.164 9.88166 33.5976 13.2265 34.526C13.2501 34.5327 13.2755 34.5325 13.299 34.5253C13.3224 34.5181 13.3427 34.5044 13.3569 34.4861C14.0741 33.6046 14.7122 32.6748 15.2617 31.6968C15.2732 31.6766 15.2771 31.6537 15.2729 31.6314C15.2687 31.6091 15.2566 31.5886 15.2384 31.573C15.2264 31.5627 15.2121 31.5548 15.1965 31.5499C14.1933 31.2023 13.2216 30.7848 12.2904 30.3011C12.2644 30.2878 12.2451 30.266 12.2364 30.2402C12.2277 30.2144 12.2304 30.1866 12.2438 30.1625C12.2518 30.1469 12.2637 30.1332 12.2788 30.1227C12.4744 29.9904 12.67 29.8519 12.8563 29.7134C12.8727 29.7015 12.8925 29.6938 12.9134 29.6912C12.9343 29.6886 12.9556 29.6912 12.975 29.6987C19.0737 32.2089 25.6753 32.2089 31.6994 29.6987C31.7195 29.6909 31.7417 29.6881 31.7634 29.6907C31.7851 29.6933 31.8057 29.7011 31.8228 29.7134C32.0091 29.8519 32.2047 29.9904 32.4003 30.1227C32.4162 30.1331 32.4289 30.1469 32.4374 30.1629C32.4459 30.1789 32.4498 30.1965 32.4489 30.2141C32.448 30.2318 32.4422 30.249 32.4321 30.2642C32.422 30.2793 32.4079 30.292 32.391 30.3011C31.4619 30.7892 30.489 31.2063 29.4826 31.5478C29.4665 31.553 29.4519 31.5614 29.4399 31.5722C29.4278 31.5831 29.4185 31.5963 29.4127 31.6107C29.4073 31.6248 29.4052 31.6396 29.4064 31.6544C29.4076 31.6692 29.4121 31.6836 29.4197 31.6968C29.9786 32.6727 30.6189 33.6046 31.3222 34.4861C31.3364 34.5044 31.3567 34.5181 31.3801 34.5253C31.4036 34.5325 31.429 34.5327 31.4526 34.526C34.803 33.6005 37.9538 32.1667 40.7694 30.2864C40.7835 30.2776 40.7952 30.266 40.8037 30.2526C40.8121 30.2391 40.8171 30.2241 40.8183 30.2087C41.596 22.9657 39.5166 16.6734 35.3088 11.0968C35.3045 11.0876 35.2982 11.0793 35.2902 11.0725C35.2822 11.0656 35.2726 11.0603 35.2622 11.057ZM16.1722 26.3931C14.3349 26.3931 12.8237 24.8735 12.8237 23.0098C12.8237 21.1439 14.307 19.6244 16.1722 19.6244C18.0514 19.6244 19.5487 21.1565 19.5208 23.0098C19.5208 24.8735 18.0374 26.3931 16.1722 26.3931ZM28.5511 26.3931C26.7162 26.3931 25.2026 24.8735 25.2026 23.0098C25.2026 21.1439 26.6859 19.6244 28.5511 19.6244C30.4303 19.6244 31.93 21.1565 31.8997 23.0098C31.8997 24.8735 30.4303 26.3931 28.5511 26.3931Z" fill="white"/>
</g>
<defs>
<filter id="filter0_d_1_6635" x="167.109" y="0.400391" width="45.803" height="45.803" filterUnits="userSpaceOnUse" color-interpolation-filters="sRGB">
<feFlood flood-opacity="0" result="BackgroundImageFix"/>
<feColorMatrix in="SourceAlpha" type="matrix" values="0 0 0 0 0 0 0 0 0 0 0 0 0 0 0 0 0 0 127 0" result="hardAlpha"/>
<feOffset dy="1.57046"/>
<feGaussianBlur stdDeviation="0.78523"/>
<feComposite in2="hardAlpha" operator="out"/>
<feColorMatrix type="matrix" values="0 0 0 0 0 0 0 0 0 0 0 0 0 0 0 0 0 0 0.25 0"/>
<feBlend mode="normal" in2="BackgroundImageFix" result="effect1_dropShadow_1_6635"/>
<feBlend mode="normal" in="SourceGraphic" in2="effect1_dropShadow_1_6635" result="shape"/>
</filter>
<clipPath id="clip0_1_6635">
<rect width="266.496" height="46.0751" fill="white" transform="translate(0.876953 0.400391)"/>
</clipPath>
</defs>
</svg>
