<svg width="97" height="97" viewBox="0 0 97 97" fill="none" xmlns="http://www.w3.org/2000/svg">
<rect x="36.333" y="25.666" width="38" height="61.3333" rx="5.33333" fill="#9BDDA2"/>
<path fill-rule="evenodd" clip-rule="evenodd" d="M26.333 18.334C25.8026 18.334 25.2939 18.5447 24.9188 18.9198C24.5437 19.2948 24.333 19.8036 24.333 20.334V82.334C24.333 82.8644 24.5437 83.3731 24.9188 83.7482C25.2939 84.1233 25.8026 84.334 26.333 84.334H70.333C70.8634 84.334 71.3722 84.1233 71.7472 83.7482C72.1223 83.3731 72.333 82.8644 72.333 82.334V20.334C72.333 19.8036 72.1223 19.2948 71.7472 18.9198C71.3722 18.5447 70.8634 18.334 70.333 18.334H59.167V14.334H70.333C71.9243 14.334 73.4504 14.9661 74.5756 16.0913C75.7009 17.2166 76.333 18.7427 76.333 20.334V82.334C76.333 83.9253 75.7009 85.4514 74.5756 86.5766C73.4504 87.7018 71.9243 88.334 70.333 88.334H26.333C24.7417 88.334 23.2156 87.7018 22.0904 86.5766C20.9651 85.4514 20.333 83.9253 20.333 82.334V20.334C20.333 18.7427 20.9651 17.2166 22.0904 16.0913C23.2156 14.9661 24.7417 14.334 26.333 14.334H37.499V18.334H26.333Z" fill="white"/>
<path fill-rule="evenodd" clip-rule="evenodd" d="M34.333 14.334C34.333 12.7427 34.9651 11.2166 36.0904 10.0913C37.2156 8.96613 38.7417 8.33398 40.333 8.33398H56.333C57.9243 8.33398 59.4504 8.96613 60.5756 10.0913C61.7009 11.2166 62.333 12.7427 62.333 14.334V18.334C62.333 19.9253 61.7009 21.4514 60.5756 22.5766C59.4504 23.7018 57.9243 24.334 56.333 24.334H40.333C38.7417 24.334 37.2156 23.7018 36.0904 22.5766C34.9651 21.4514 34.333 19.9253 34.333 18.334V14.334ZM40.333 12.334C39.8026 12.334 39.2939 12.5447 38.9188 12.9198C38.5437 13.2948 38.333 13.8036 38.333 14.334V18.334C38.333 18.8644 38.5437 19.3731 38.9188 19.7482C39.2939 20.1233 39.8026 20.334 40.333 20.334H56.333C56.8634 20.334 57.3722 20.1233 57.7472 19.7482C58.1223 19.3731 58.333 18.8644 58.333 18.334V14.334C58.333 13.8036 58.1223 13.2948 57.7472 12.9198C57.3722 12.5447 56.8634 12.334 56.333 12.334H40.333ZM30.333 42.334C30.333 41.8036 30.5437 41.2948 30.9188 40.9198C31.2939 40.5447 31.8026 40.334 32.333 40.334H46.333C46.8634 40.334 47.3722 40.5447 47.7472 40.9198C48.1223 41.2948 48.333 41.8036 48.333 42.334C48.333 42.8644 48.1223 43.3731 47.7472 43.7482C47.3722 44.1233 46.8634 44.334 46.333 44.334H32.333C31.8026 44.334 31.2939 44.1233 30.9188 43.7482C30.5437 43.3731 30.333 42.8644 30.333 42.334ZM30.333 32.334C30.333 31.8036 30.5437 31.2948 30.9188 30.9198C31.2939 30.5447 31.8026 30.334 32.333 30.334H63.333C63.8634 30.334 64.3722 30.5447 64.7472 30.9198C65.1223 31.2948 65.333 31.8036 65.333 32.334C65.333 32.8644 65.1223 33.3731 64.7472 33.7482C64.3722 34.1233 63.8634 34.334 63.333 34.334H32.333C31.8026 34.334 31.2939 34.1233 30.9188 33.7482C30.5437 33.3731 30.333 32.8644 30.333 32.334ZM34.333 58.334V62.334H38.333V58.334H34.333ZM32.333 54.334C31.8026 54.334 31.2939 54.5447 30.9188 54.9198C30.5437 55.2948 30.333 55.8036 30.333 56.334V64.334C30.333 64.8644 30.5437 65.3731 30.9188 65.7482C31.2939 66.1233 31.8026 66.334 32.333 66.334H40.333C40.8634 66.334 41.3722 66.1233 41.7472 65.7482C42.1223 65.3731 42.333 64.8644 42.333 64.334V56.334C42.333 55.8036 42.1223 55.2948 41.7472 54.9198C41.3722 54.5447 40.8634 54.334 40.333 54.334H32.333ZM56.333 58.334C56.6029 58.3463 56.8725 58.3039 57.1255 58.2092C57.3785 58.1145 57.6098 57.9695 57.8052 57.7829C58.0007 57.5964 58.1563 57.3722 58.2627 57.1239C58.3691 56.8756 58.4241 56.6082 58.4244 56.3381C58.4247 56.0679 58.3702 55.8005 58.2643 55.5519C58.1584 55.3034 58.0032 55.0789 57.8081 54.892C57.613 54.7051 57.3821 54.5596 57.1293 54.4644C56.8764 54.3692 56.6069 54.3262 56.337 54.338C55.8225 54.3605 55.3366 54.5806 54.9803 54.9524C54.624 55.3242 54.4249 55.8191 54.4244 56.3341C54.4239 56.849 54.622 57.3443 54.9775 57.7169C55.3331 58.0894 55.8186 58.3105 56.333 58.334ZM56.333 62.334C57.9243 62.334 59.4504 61.7018 60.5756 60.5766C61.7009 59.4514 62.333 57.9253 62.333 56.334C62.333 54.7427 61.7009 53.2166 60.5756 52.0913C59.4504 50.9661 57.9243 50.334 56.333 50.334C54.7417 50.334 53.2156 50.9661 52.0904 52.0913C50.9651 53.2166 50.333 54.7427 50.333 56.334C50.333 57.9253 50.9651 59.4514 52.0904 60.5766C53.2156 61.7018 54.7417 62.334 56.333 62.334ZM48.333 70.894C48.3679 70.8531 48.4046 70.8137 48.443 70.776C48.771 70.456 49.403 70.032 50.395 69.61C52.395 68.76 54.863 68.334 56.333 68.334C57.803 68.334 60.271 68.76 62.271 69.61C63.263 70.03 63.895 70.456 64.223 70.776C64.2613 70.8131 64.298 70.8518 64.333 70.892V74.334H48.333V70.894ZM56.333 64.334C52.327 64.334 44.333 66.466 44.333 70.698V78.334H68.333V70.698C68.333 66.466 60.339 64.334 56.333 64.334Z" fill="white"/>
</svg>
