<svg width="28" height="27" viewBox="0 0 28 27" fill="none" xmlns="http://www.w3.org/2000/svg">
<path fill-rule="evenodd" clip-rule="evenodd" d="M22.5221 11.6242H14.076C14.076 12.5026 14.076 14.2593 14.0706 15.1377H18.9649C18.7773 16.0161 18.1124 17.2458 17.1728 17.8651C17.1719 17.8642 17.171 17.8703 17.1692 17.8695C15.9201 18.6942 14.2716 18.8813 13.0476 18.6354C11.129 18.2542 9.6106 16.8628 8.9941 15.0955C8.99769 15.0929 9.00038 15.0683 9.00307 15.0666C8.6172 13.9703 8.6172 12.5026 9.00307 11.6242C9.50022 10.0097 11.0635 8.53671 12.9848 8.13354C14.53 7.8059 16.2737 8.16077 17.556 9.36063C17.7265 9.19374 19.9161 7.05577 20.0803 6.88185C15.6993 2.91423 8.6845 4.30997 6.05966 9.43353C6.05966 9.43353 6.05966 9.43353 6.05428 9.4432C4.75577 11.9597 4.80961 14.9251 6.06325 17.3213C6.05966 17.324 6.05697 17.3257 6.05428 17.3284C7.19036 19.5331 9.25793 21.224 11.7491 21.8678C14.3954 22.5617 17.7633 22.0874 20.0193 20.0469C20.0202 20.0478 20.0211 20.0487 20.022 20.0496C21.9334 18.328 23.1234 15.3951 22.5221 11.6242Z" fill="#0D0D0D"/>
</svg>
