<svg width="33" height="33" viewBox="0 0 33 33" fill="none" xmlns="http://www.w3.org/2000/svg">
<g clip-path="url(#clip0_1_442)">
<path d="M21.355 19.3354H20.3016L19.9283 18.9754C21.235 17.4553 22.0217 15.4818 22.0217 13.3351C22.0217 8.54816 18.1415 4.66797 13.3546 4.66797C8.56769 4.66797 4.6875 8.54816 4.6875 13.3351C4.6875 18.122 8.56769 22.0022 13.3546 22.0022C15.5014 22.0022 17.4748 21.2155 18.9949 19.9087L19.3549 20.2821V21.3355L26.0219 27.9891L28.0087 26.0024L21.355 19.3354ZM13.3546 19.3354C10.0344 19.3354 7.3543 16.6552 7.3543 13.3351C7.3543 10.0149 10.0344 7.33477 13.3546 7.33477C16.6748 7.33477 19.3549 10.0149 19.3549 13.3351C19.3549 16.6552 16.6748 19.3354 13.3546 19.3354Z" fill="black"/>
</g>
<defs>
<clipPath id="clip0_1_442">
<rect width="32.0016" height="32.0016" fill="white" transform="translate(0.6875 0.666016)"/>
</clipPath>
</defs>
</svg>
