<svg width="33" height="33" viewBox="0 0 33 33" fill="none" xmlns="http://www.w3.org/2000/svg">
<g clip-path="url(#clip0_1_516)">
<path d="M20.7105 19.3354H19.6571L19.2837 18.9754C20.5905 17.4553 21.3772 15.4818 21.3772 13.3351C21.3772 8.54816 17.497 4.66797 12.7101 4.66797C7.92316 4.66797 4.04297 8.54816 4.04297 13.3351C4.04297 18.122 7.92316 22.0022 12.7101 22.0022C14.8568 22.0022 16.8303 21.2155 18.3503 19.9087L18.7104 20.2821V21.3355L25.3774 27.9891L27.3641 26.0024L20.7105 19.3354ZM12.7101 19.3354C9.3899 19.3354 6.70977 16.6552 6.70977 13.3351C6.70977 10.0149 9.3899 7.33477 12.7101 7.33477C16.0302 7.33477 18.7104 10.0149 18.7104 13.3351C18.7104 16.6552 16.0302 19.3354 12.7101 19.3354Z" fill="black"/>
</g>
<defs>
<clipPath id="clip0_1_516">
<rect width="32.0016" height="32.0016" fill="white" transform="translate(0.0429688 0.666016)"/>
</clipPath>
</defs>
</svg>
