<svg width="84" height="83" viewBox="0 0 84 83" fill="none" xmlns="http://www.w3.org/2000/svg">
<path d="M78.15 32.741C76.6875 31.2035 75.1875 29.6285 74.5875 28.166C73.9875 26.7035 73.9875 24.791 73.95 22.6535C73.9125 19.166 73.8375 15.1535 71.175 12.491C68.5125 9.82852 64.5 9.75352 61.0125 9.71602C58.875 9.67852 56.85 9.64102 55.5 9.07852C54.15 8.51602 52.4625 6.97852 50.925 5.51602C48.45 3.11602 45.6 0.416016 42 0.416016C38.4 0.416016 35.55 3.11602 33.075 5.51602C31.5375 6.97852 29.9625 8.47852 28.5 9.07852C27.0375 9.67852 25.125 9.67852 22.9875 9.71602C19.5 9.75352 15.4875 9.82852 12.825 12.491C10.1625 15.1535 10.0875 19.166 10.05 22.6535C10.0125 24.791 9.975 26.816 9.4125 28.166C8.85 29.516 7.3125 31.2035 5.85 32.741C3.45 35.216 0.75 38.066 0.75 41.666C0.75 45.266 3.45 48.116 5.85 50.591C7.3125 52.1285 8.8125 53.7035 9.4125 55.166C10.0125 56.6285 10.0125 58.541 10.05 60.6785C10.0875 64.166 10.1625 68.1785 12.825 70.841C15.4875 73.5035 19.5 73.5785 22.9875 73.616C25.125 73.6535 27.15 73.691 28.5 74.2535C29.85 74.816 31.5375 76.3535 33.075 77.816C35.55 80.216 38.4 82.916 42 82.916C45.6 82.916 48.45 80.216 50.925 77.816C52.4625 76.3535 54.0375 74.8535 55.5 74.2535C56.9625 73.6535 58.875 73.6535 61.0125 73.616C64.5 73.5785 68.5125 73.5035 71.175 70.841C73.8375 68.1785 73.9125 64.166 73.95 60.6785C73.9875 58.541 74.025 56.516 74.5875 55.166C75.15 53.816 76.6875 52.1285 78.15 50.591C80.55 48.116 83.25 45.266 83.25 41.666C83.25 38.066 80.55 35.216 78.15 32.741ZM74.925 47.4785C73.1625 49.316 71.3625 51.191 70.425 53.441C69.4875 55.691 69.4875 58.1285 69.45 60.6035C69.4125 63.0785 69.375 66.266 67.9875 67.6535C66.6 69.041 63.7125 69.0785 60.9375 69.116C58.1625 69.1535 55.9125 69.191 53.775 70.091C51.6375 70.991 49.65 72.8285 47.8125 74.591C45.975 76.3535 43.8 78.416 42 78.416C40.2 78.416 38.175 76.466 36.1875 74.591C34.2 72.716 32.475 71.0285 30.225 70.091C27.975 69.1535 25.5375 69.1535 23.0625 69.116C20.5875 69.0785 17.4 69.041 16.0125 67.6535C14.625 66.266 14.5875 63.3785 14.55 60.6035C14.5125 57.8285 14.475 55.5785 13.575 53.441C12.675 51.3035 10.8375 49.316 9.075 47.4785C7.3125 45.641 5.25 43.466 5.25 41.666C5.25 39.866 7.2 37.841 9.075 35.8535C10.95 33.866 12.6375 32.141 13.575 29.891C14.5125 27.641 14.5125 25.2035 14.55 22.7285C14.5875 20.2535 14.625 17.066 16.0125 15.6785C17.4 14.291 20.2875 14.2535 23.0625 14.216C25.8375 14.1785 28.0875 14.141 30.225 13.241C32.3625 12.341 34.35 10.5035 36.1875 8.74102C38.025 6.97852 40.2 4.91602 42 4.91602C43.8 4.91602 45.825 6.86602 47.8125 8.74102C49.8 10.616 51.525 12.3035 53.775 13.241C56.025 14.1785 58.4625 14.1785 60.9375 14.216C63.4125 14.2535 66.6 14.291 67.9875 15.6785C69.375 17.066 69.4125 19.9535 69.45 22.7285C69.4875 25.5035 69.525 27.7535 70.425 29.891C71.325 32.0285 73.1625 34.016 74.925 35.8535C76.6875 37.691 78.75 39.866 78.75 41.666C78.75 43.466 76.8 45.491 74.925 47.4785ZM60.1125 31.1285C60.3163 31.3393 60.4762 31.5884 60.5829 31.8615C60.6895 32.1346 60.7409 32.4261 60.7339 32.7192C60.7269 33.0123 60.6618 33.3011 60.5422 33.5688C60.4227 33.8364 60.2511 34.0777 60.0375 34.2785L38.0625 55.2785C37.6347 55.679 37.0734 55.9062 36.4875 55.916C35.9107 55.9158 35.3577 55.6865 34.95 55.2785L23.9625 44.7785C23.5348 44.3707 23.2867 43.8098 23.2726 43.219C23.2585 42.6283 23.4797 42.0562 23.8875 41.6285C24.2953 41.2009 24.8562 40.9527 25.447 40.9386C26.0377 40.9246 26.6098 41.1457 27.0375 41.5535L36.4875 50.5535L56.9625 31.0535C57.1732 30.8497 57.4224 30.6898 57.6955 30.5832C57.9685 30.4765 58.2601 30.4251 58.5532 30.4321C58.8463 30.4391 59.1351 30.5043 59.4027 30.6238C59.6704 30.7434 59.9117 30.9149 60.1125 31.1285Z" fill="white"/>
</svg>
