<svg width="68" height="78" viewBox="0 0 68 78" fill="none" xmlns="http://www.w3.org/2000/svg">
<path d="M34.1096 3.54778C34.6756 2.73635 35.4027 2.05027 36.2456 1.53234C37.0885 1.0144 38.0291 0.675737 39.0087 0.537466C39.9883 0.399196 40.9859 0.464289 41.9392 0.728685C42.8925 0.993081 43.7812 1.45111 44.5496 2.07418L60.2456 14.8182C61.6481 15.9562 62.5716 17.5798 62.833 19.3669C63.0944 21.154 62.6746 22.9741 61.6568 24.4662H55.8008L57.6728 21.783C58.0213 21.286 58.1684 20.6754 58.0847 20.0742C58.001 19.473 57.6926 18.9259 57.2216 18.543L49.1384 11.9862L40.5176 24.4662H34.676L45.3992 8.95258L41.5208 5.80378C41.2648 5.59601 40.9686 5.44323 40.6509 5.35497C40.3332 5.26671 40.0007 5.24487 39.6742 5.29081C39.3477 5.33675 39.0341 5.44948 38.7531 5.62198C38.4721 5.79447 38.2296 6.02302 38.0408 6.29338L25.364 24.4614H19.508L34.1096 3.54778ZM50.9 53.2662C50.2635 53.2662 49.653 53.519 49.2029 53.9691C48.7529 54.4192 48.5 55.0297 48.5 55.6662C48.5 56.3027 48.7529 56.9132 49.2029 57.3632C49.653 57.8133 50.2635 58.0662 50.9 58.0662H55.7C56.3365 58.0662 56.947 57.8133 57.3971 57.3632C57.8471 56.9132 58.1 56.3027 58.1 55.6662C58.1 55.0297 57.8471 54.4192 57.3971 53.9691C56.947 53.519 56.3365 53.2662 55.7 53.2662H50.9ZM7.7 19.6662H18.1112L14.7512 24.4662H7.7C7.06348 24.4662 6.45303 24.719 6.00294 25.1691C5.55286 25.6192 5.3 26.2297 5.3 26.8662C5.3 27.5027 5.55286 28.1131 6.00294 28.5632C6.45303 29.0133 7.06348 29.2662 7.7 29.2662H58.1C60.6461 29.2662 63.0879 30.2776 64.8882 32.078C66.6886 33.8783 67.7 36.3201 67.7 38.8662V67.6662C67.7 70.2123 66.6886 72.6541 64.8882 74.4544C63.0879 76.2548 60.6461 77.2662 58.1 77.2662H12.5C9.3174 77.2662 6.26516 76.0019 4.01472 73.7515C1.76428 71.501 0.5 68.4488 0.5 65.2662V26.8662C0.5 24.9566 1.25857 23.1253 2.60883 21.775C3.95909 20.4247 5.79044 19.6662 7.7 19.6662ZM5.3 65.2662C5.3 67.1757 6.05857 69.0071 7.40883 70.3574C8.75909 71.7076 10.5904 72.4662 12.5 72.4662H58.1C59.373 72.4662 60.5939 71.9605 61.4941 71.0603C62.3943 70.1601 62.9 68.9392 62.9 67.6662V38.8662C62.9 37.5931 62.3943 36.3722 61.4941 35.4721C60.5939 34.5719 59.373 34.0662 58.1 34.0662H7.7C6.86 34.0662 6.0488 33.9222 5.3 33.6582V65.2662Z" fill="white"/>
</svg>
