<svg width="73" height="83" viewBox="0 0 73 83" fill="none" xmlns="http://www.w3.org/2000/svg">
<path d="M29.0012 3.3336C27.2183 1.99647 25.0984 1.18222 22.8788 0.982088C20.6593 0.781952 18.4279 1.20384 16.4346 2.20047C14.4413 3.19711 12.765 4.72911 11.5934 6.62483C10.4217 8.52054 9.80117 10.7051 9.80117 12.9336V20.1336H5.00117C3.72813 20.1336 2.50723 20.6393 1.60706 21.5395C0.706886 22.4397 0.201172 23.6606 0.201172 24.9336V63.3336C0.201172 67.1527 1.71831 70.8154 4.41883 73.5159C7.11936 76.2165 10.7821 77.7336 14.6012 77.7336H36.3452L31.646 72.9336H14.6012C12.0551 72.9336 9.61329 71.9222 7.81295 70.1218C6.0126 68.3215 5.00117 65.8797 5.00117 63.3336V24.9336H33.8012V34.7832C34.6066 34.617 35.4268 34.5334 36.2492 34.5336H38.6012V24.9336H53.0012V34.9032C54.758 35.3496 56.4044 36.1896 57.8012 37.3704V24.9336C57.8012 23.6606 57.2955 22.4397 56.3953 21.5395C55.4951 20.6393 54.2742 20.1336 53.0012 20.1336H48.2012V12.9336C48.2012 10.7051 47.5806 8.52054 46.409 6.62483C45.2374 4.72911 43.561 3.19711 41.5677 2.20047C39.5745 1.20384 37.343 0.781952 35.1235 0.982088C32.904 1.18222 30.784 1.99647 29.0012 3.3336ZM14.6012 12.9336C14.6012 11.024 15.3597 9.19269 16.71 7.84243C18.0603 6.49217 19.8916 5.7336 21.8012 5.7336C23.7107 5.7336 25.5421 6.49217 26.8923 7.84243C28.2426 9.19269 29.0012 11.024 29.0012 12.9336V20.1336H14.6012V12.9336ZM32.2028 6.9432C33.2871 6.21911 34.5477 5.80306 35.8501 5.73948C37.1524 5.6759 38.4476 5.96717 39.5973 6.5822C40.747 7.19723 41.7082 8.11292 42.3781 9.23154C43.0481 10.3502 43.4017 11.6297 43.4012 12.9336V20.1336H33.8012V12.9336C33.8012 10.7544 33.2204 8.7096 32.2028 6.9432ZM31.0748 65.4888C29.7463 64.1322 29.0019 62.3092 29.0012 60.4104V46.5864C29.0005 45.6342 29.1875 44.6912 29.5515 43.8112C29.9155 42.9313 30.4493 42.1317 31.1224 41.4582C31.7955 40.7846 32.5947 40.2503 33.4744 39.8858C34.3541 39.5212 35.2969 39.3336 36.2492 39.3336H50.0396C51.974 39.3336 53.8268 40.1064 55.1852 41.4792L70.0988 56.5512C70.7757 57.2347 71.3101 58.0459 71.6709 58.9377C72.0317 59.8294 72.2118 60.784 72.2006 61.7459C72.1895 62.7078 71.9873 63.6579 71.6059 64.5411C71.2245 65.4242 70.6714 66.2228 69.9788 66.8904L55.8332 80.508C54.4579 81.8332 52.6146 82.5612 50.7049 82.5334C48.7952 82.5055 46.974 81.724 45.638 80.3592L31.0748 65.4888ZM38.6012 52.5336C38.6012 53.4884 38.9805 54.4041 39.6556 55.0792C40.3307 55.7543 41.2464 56.1336 42.2012 56.1336C43.1559 56.1336 44.0716 55.7543 44.7468 55.0792C45.4219 54.4041 45.8012 53.4884 45.8012 52.5336C45.8012 51.5788 45.4219 50.6631 44.7468 49.988C44.0716 49.3129 43.1559 48.9336 42.2012 48.9336C41.2464 48.9336 40.3307 49.3129 39.6556 49.988C38.9805 50.6631 38.6012 51.5788 38.6012 52.5336Z" fill="white"/>
</svg>
