<svg width="11" height="12" viewBox="0 0 11 12" fill="none" xmlns="http://www.w3.org/2000/svg">
<path d="M6.10348 2.22651L6.88571 3.79096C6.99237 4.00873 7.27682 4.21762 7.51682 4.25762L8.93459 4.49318C9.84126 4.64429 10.0546 5.30207 9.40126 5.95095L8.29904 7.05318C8.11237 7.23984 8.01015 7.59984 8.06793 7.85762L8.38348 9.22207C8.63237 10.3021 8.05904 10.7198 7.10348 10.1554L5.7746 9.36873C5.5346 9.22651 5.13904 9.22651 4.8946 9.36873L3.56571 10.1554C2.6146 10.7198 2.03682 10.2976 2.28571 9.22207L2.60126 7.85762C2.65904 7.59984 2.55682 7.23984 2.37015 7.05318L1.26793 5.95095C0.619039 5.30207 0.827928 4.64429 1.7346 4.49318L3.15237 4.25762C3.38793 4.21762 3.67237 4.00873 3.77904 3.79096L4.56126 2.22651C4.98793 1.37762 5.68126 1.37762 6.10348 2.22651Z" fill="#F2BC1B" stroke="#F2BC1B" stroke-linecap="round" stroke-linejoin="round"/>
</svg>
