<svg width="11" height="12" viewBox="0 0 11 12" fill="none" xmlns="http://www.w3.org/2000/svg">
<path d="M6.43649 2.22651L7.21871 3.79096C7.32538 4.00873 7.60983 4.21762 7.84983 4.25762L9.2676 4.49318C10.1743 4.64429 10.3876 5.30207 9.73427 5.95095L8.63205 7.05318C8.44538 7.23984 8.34316 7.59984 8.40094 7.85762L8.71649 9.22207C8.96538 10.3021 8.39205 10.7198 7.43649 10.1554L6.1076 9.36873C5.8676 9.22651 5.47205 9.22651 5.2276 9.36873L3.89871 10.1554C2.9476 10.7198 2.36983 10.2976 2.61871 9.22207L2.93427 7.85762C2.99205 7.59984 2.88983 7.23984 2.70316 7.05318L1.60094 5.95095C0.952047 5.30207 1.16094 4.64429 2.0676 4.49318L3.48538 4.25762C3.72094 4.21762 4.00538 4.00873 4.11205 3.79096L4.89427 2.22651C5.32094 1.37762 6.01427 1.37762 6.43649 2.22651Z" fill="#F2BC1B" stroke="#F2BC1B" stroke-linecap="round" stroke-linejoin="round"/>
</svg>
