<svg width="11" height="12" viewBox="0 0 11 12" fill="none" xmlns="http://www.w3.org/2000/svg">
<path d="M6.10251 2.22651L6.88473 3.79096C6.9914 4.00873 7.27584 4.21762 7.51584 4.25762L8.93362 4.49318C9.84029 4.64429 10.0536 5.30207 9.40028 5.95095L8.29806 7.05318C8.1114 7.23984 8.00917 7.59984 8.06695 7.85762L8.38251 9.22207C8.6314 10.3021 8.05806 10.7198 7.10251 10.1554L5.77362 9.36873C5.53362 9.22651 5.13806 9.22651 4.89362 9.36873L3.56473 10.1554C2.61362 10.7198 2.03584 10.2976 2.28473 9.22207L2.60029 7.85762C2.65806 7.59984 2.55584 7.23984 2.36917 7.05318L1.26695 5.95095C0.618063 5.30207 0.826952 4.64429 1.73362 4.49318L3.1514 4.25762C3.38695 4.21762 3.6714 4.00873 3.77806 3.79096L4.56029 2.22651C4.98695 1.37762 5.68029 1.37762 6.10251 2.22651Z" fill="#F2BC1B" stroke="#F2BC1B" stroke-linecap="round" stroke-linejoin="round"/>
</svg>
