<svg width="11" height="12" viewBox="0 0 11 12" fill="none" xmlns="http://www.w3.org/2000/svg">
<path d="M6.43552 2.22651L7.21774 3.79096C7.3244 4.00873 7.60885 4.21762 7.84885 4.25762L9.26663 4.49318C10.1733 4.64429 10.3866 5.30207 9.73329 5.95095L8.63107 7.05318C8.4444 7.23984 8.34218 7.59984 8.39996 7.85762L8.71552 9.22207C8.9644 10.3021 8.39107 10.7198 7.43552 10.1554L6.10663 9.36873C5.86663 9.22651 5.47107 9.22651 5.22663 9.36873L3.89774 10.1554C2.94663 10.7198 2.36885 10.2976 2.61774 9.22207L2.93329 7.85762C2.99107 7.59984 2.88885 7.23984 2.70218 7.05318L1.59996 5.95095C0.951071 5.30207 1.15996 4.64429 2.06663 4.49318L3.4844 4.25762C3.71996 4.21762 4.0044 4.00873 4.11107 3.79096L4.89329 2.22651C5.31996 1.37762 6.01329 1.37762 6.43552 2.22651Z" fill="#F2BC1B" stroke="#F2BC1B" stroke-linecap="round" stroke-linejoin="round"/>
</svg>
