<svg width="11" height="12" viewBox="0 0 11 12" fill="none" xmlns="http://www.w3.org/2000/svg">
<path d="M6.43356 2.22651L7.21578 3.79096C7.32245 4.00873 7.6069 4.21762 7.8469 4.25762L9.26467 4.49318C10.1713 4.64429 10.3847 5.30207 9.73134 5.95095L8.62912 7.05318C8.44245 7.23984 8.34023 7.59984 8.39801 7.85762L8.71356 9.22207C8.96245 10.3021 8.38912 10.7198 7.43356 10.1554L6.10467 9.36873C5.86467 9.22651 5.46912 9.22651 5.22467 9.36873L3.89578 10.1554C2.94467 10.7198 2.3669 10.2976 2.61578 9.22207L2.93134 7.85762C2.98912 7.59984 2.8869 7.23984 2.70023 7.05318L1.59801 5.95095C0.949118 5.30207 1.15801 4.64429 2.06467 4.49318L3.48245 4.25762C3.71801 4.21762 4.00245 4.00873 4.10912 3.79096L4.89134 2.22651C5.31801 1.37762 6.01134 1.37762 6.43356 2.22651Z" fill="#F2BC1B" stroke="#F2BC1B" stroke-linecap="round" stroke-linejoin="round"/>
</svg>
