<svg width="13" height="13" viewBox="0 0 13 13" fill="none" xmlns="http://www.w3.org/2000/svg">
<path d="M7.53146 2.42133L8.41146 4.18133C8.53146 4.42633 8.85146 4.66133 9.12146 4.70633L10.7165 4.97133C11.7365 5.14133 11.9765 5.88133 11.2415 6.61133L10.0015 7.85133C9.79146 8.06133 9.67646 8.46633 9.74146 8.75633L10.0965 10.2913C10.3765 11.5063 9.73146 11.9763 8.65646 11.3413L7.16146 10.4563C6.89146 10.2963 6.44646 10.2963 6.17146 10.4563L4.67646 11.3413C3.60646 11.9763 2.95646 11.5013 3.23646 10.2913L3.59146 8.75633C3.65646 8.46633 3.54146 8.06133 3.33146 7.85133L2.09146 6.61133C1.36146 5.88133 1.59646 5.14133 2.61646 4.97133L4.21146 4.70633C4.47646 4.66133 4.79646 4.42633 4.91646 4.18133L5.79646 2.42133C6.27646 1.46633 7.05646 1.46633 7.53146 2.42133Z" fill="#F2BC1B" stroke="#F2BC1B" stroke-linecap="round" stroke-linejoin="round"/>
</svg>
