<svg width="12" height="12" viewBox="0 0 12 12" fill="none" xmlns="http://www.w3.org/2000/svg">
<path d="M7.09958 2.22651L7.8818 3.79096C7.98847 4.00873 8.27291 4.21762 8.51291 4.25762L9.93069 4.49318C10.8374 4.64429 11.0507 5.30207 10.3974 5.95095L9.29513 7.05318C9.10847 7.23984 9.00624 7.59984 9.06402 7.85762L9.37958 9.22207C9.62847 10.3021 9.05513 10.7198 8.09958 10.1554L6.77069 9.36873C6.53069 9.22651 6.13513 9.22651 5.89069 9.36873L4.5618 10.1554C3.61069 10.7198 3.03291 10.2976 3.2818 9.22207L3.59736 7.85762C3.65513 7.59984 3.55291 7.23984 3.36624 7.05318L2.26402 5.95095C1.61513 5.30207 1.82402 4.64429 2.73069 4.49318L4.14847 4.25762C4.38402 4.21762 4.66847 4.00873 4.77513 3.79096L5.55736 2.22651C5.98402 1.37762 6.67736 1.37762 7.09958 2.22651Z" fill="#F2BC1B" stroke="#F2BC1B" stroke-linecap="round" stroke-linejoin="round"/>
</svg>
