<svg width="13" height="13" viewBox="0 0 13 13" fill="none" xmlns="http://www.w3.org/2000/svg">
<path d="M7.19845 2.42133L8.07845 4.18133C8.19845 4.42633 8.51845 4.66133 8.78845 4.70633L10.3835 4.97133C11.4035 5.14133 11.6435 5.88133 10.9085 6.61133L9.66845 7.85133C9.45845 8.06133 9.34345 8.46633 9.40845 8.75633L9.76345 10.2913C10.0435 11.5063 9.39845 11.9763 8.32345 11.3413L6.82845 10.4563C6.55845 10.2963 6.11345 10.2963 5.83845 10.4563L4.34345 11.3413C3.27345 11.9763 2.62345 11.5013 2.90345 10.2913L3.25845 8.75633C3.32345 8.46633 3.20845 8.06133 2.99845 7.85133L1.75845 6.61133C1.02845 5.88133 1.26345 5.14133 2.28345 4.97133L3.87845 4.70633C4.14345 4.66133 4.46345 4.42633 4.58345 4.18133L5.46345 2.42133C5.94345 1.46633 6.72345 1.46633 7.19845 2.42133Z" fill="#F2BC1B" stroke="#F2BC1B" stroke-linecap="round" stroke-linejoin="round"/>
</svg>
