<svg width="11" height="12" viewBox="0 0 11 12" fill="none" xmlns="http://www.w3.org/2000/svg">
<path d="M6.10153 2.22651L6.88375 3.79096C6.99042 4.00873 7.27486 4.21762 7.51486 4.25762L8.93264 4.49318C9.83931 4.64429 10.0526 5.30207 9.39931 5.95095L8.29709 7.05318C8.11042 7.23984 8.0082 7.59984 8.06597 7.85762L8.38153 9.22207C8.63042 10.3021 8.05709 10.7198 7.10153 10.1554L5.77264 9.36873C5.53264 9.22651 5.13709 9.22651 4.89264 9.36873L3.56375 10.1554C2.61264 10.7198 2.03486 10.2976 2.28375 9.22207L2.59931 7.85762C2.65709 7.59984 2.55486 7.23984 2.3682 7.05318L1.26598 5.95095C0.617086 5.30207 0.825975 4.64429 1.73264 4.49318L3.15042 4.25762C3.38598 4.21762 3.67042 4.00873 3.77709 3.79096L4.55931 2.22651C4.98598 1.37762 5.67931 1.37762 6.10153 2.22651Z" fill="#F2BC1B" stroke="#F2BC1B" stroke-linecap="round" stroke-linejoin="round"/>
</svg>
