<svg width="12" height="12" viewBox="0 0 12 12" fill="none" xmlns="http://www.w3.org/2000/svg">
<path d="M6.7695 2.22651L7.55172 3.79096C7.65839 4.00873 7.94283 4.21762 8.18283 4.25762L9.60061 4.49318C10.5073 4.64429 10.7206 5.30207 10.0673 5.95095L8.96505 7.05318C8.77839 7.23984 8.67617 7.59984 8.73394 7.85762L9.0495 9.22207C9.29839 10.3021 8.72506 10.7198 7.7695 10.1554L6.44061 9.36873C6.20061 9.22651 5.80506 9.22651 5.56061 9.36873L4.23172 10.1554C3.28061 10.7198 2.70283 10.2976 2.95172 9.22207L3.26728 7.85762C3.32506 7.59984 3.22283 7.23984 3.03617 7.05318L1.93394 5.95095C1.28506 5.30207 1.49394 4.64429 2.40061 4.49318L3.81839 4.25762C4.05394 4.21762 4.33839 4.00873 4.44506 3.79096L5.22728 2.22651C5.65394 1.37762 6.34728 1.37762 6.7695 2.22651Z" fill="#F4F4F4" stroke="#F4F4F4" stroke-linecap="round" stroke-linejoin="round"/>
</svg>
