<svg width="12" height="12" viewBox="0 0 12 12" fill="none" xmlns="http://www.w3.org/2000/svg">
<path d="M6.76755 2.22651L7.54977 3.79096C7.65644 4.00873 7.94088 4.21762 8.18088 4.25762L9.59866 4.49318C10.5053 4.64429 10.7187 5.30207 10.0653 5.95095L8.9631 7.05318C8.77644 7.23984 8.67421 7.59984 8.73199 7.85762L9.04755 9.22207C9.29644 10.3021 8.7231 10.7198 7.76755 10.1554L6.43866 9.36873C6.19866 9.22651 5.8031 9.22651 5.55866 9.36873L4.22977 10.1554C3.27866 10.7198 2.70088 10.2976 2.94977 9.22207L3.26532 7.85762C3.3231 7.59984 3.22088 7.23984 3.03421 7.05318L1.93199 5.95095C1.2831 5.30207 1.49199 4.64429 2.39866 4.49318L3.81644 4.25762C4.05199 4.21762 4.33644 4.00873 4.4431 3.79096L5.22532 2.22651C5.65199 1.37762 6.34532 1.37762 6.76755 2.22651Z" fill="#F2BC1B" stroke="#F2BC1B" stroke-linecap="round" stroke-linejoin="round"/>
</svg>
